HIERARCHY
ROOT Hips
{
	OFFSET 0.000000 0.000000 0.000000
	CHANNELS 6 Xposition Yposition Zposition Zrotation Yrotation Xrotation 
	JOINT LHipJoint
	{
		OFFSET 0.000000 0.000000 0.000000
		CHANNELS 3 Zrotation Yrotation Xrotation
		JOINT LeftUpLeg
		{
			OFFSET 1.363060 -1.794630 0.839290
			CHANNELS 3 Zrotation Yrotation Xrotation
			JOINT LeftLeg
			{
				OFFSET 2.448110 -6.726130 0.000000
				CHANNELS 3 Zrotation Yrotation Xrotation
				JOINT LeftFoot
				{
					OFFSET 2.562200 -7.039590 0.000000
					CHANNELS 3 Zrotation Yrotation Xrotation
					JOINT LeftToeBase
					{
						OFFSET 0.157640 -0.433110 2.322550
						CHANNELS 3 Zrotation Yrotation Xrotation
						End Site
						{
							OFFSET 0.000000 0.000000 0.000000
						}
					}
				}
			}
		}
	}
	JOINT RHipJoint
	{
		OFFSET 0.000000 0.000000 0.000000
		CHANNELS 3 Zrotation Yrotation Xrotation
		JOINT RightUpLeg
		{
			OFFSET -1.305520 -1.794630 0.839290
			CHANNELS 3 Zrotation Yrotation Xrotation
			JOINT RightLeg
			{
				OFFSET -2.542530 -6.985550 0.000000
				CHANNELS 3 Zrotation Yrotation Xrotation
				JOINT RightFoot
				{
					OFFSET -2.568260 -7.056230 0.000000
					CHANNELS 3 Zrotation Yrotation Xrotation
					JOINT RightToeBase
					{
						OFFSET -0.164730 -0.452590 2.363150
						CHANNELS 3 Zrotation Yrotation Xrotation
						End Site
						{
							OFFSET 0.000000 0.000000 0.000000
						}
					}
				}
			}
		}
	}
	JOINT LowerBack
	{
		OFFSET 0.000000 0.000000 0.000000
		CHANNELS 3 Zrotation Yrotation Xrotation
		JOINT Spine
		{
			OFFSET 0.028270 2.035590 -0.193380
			CHANNELS 3 Zrotation Yrotation Xrotation
			JOINT Spine1
			{
				OFFSET 0.056720 2.048850 -0.042750
				CHANNELS 3 Zrotation Yrotation Xrotation
				JOINT Neck
				{
					OFFSET 0.000000 0.000000 0.000000
					CHANNELS 3 Zrotation Yrotation Xrotation
					JOINT Neck1
					{
						OFFSET -0.054170 1.746240 0.172020
						CHANNELS 3 Zrotation Yrotation Xrotation
						JOINT Head
						{
							OFFSET 0.104070 1.761360 -0.123970
							CHANNELS 3 Zrotation Yrotation Xrotation
							End Site
							{
								OFFSET 0.000000 0.000000 0.000000
							}
						}
					}
				}
				JOINT LeftShoulder
				{
					OFFSET 0.000000 0.000000 0.000000
					CHANNELS 3 Zrotation Yrotation Xrotation
					JOINT LeftArm
					{
						OFFSET 3.362410 1.200890 -0.311210
						CHANNELS 3 Zrotation Yrotation Xrotation
						JOINT LeftForeArm
						{
							OFFSET 4.983000 -0.000000 -0.000000
							CHANNELS 3 Zrotation Yrotation Xrotation
							JOINT LeftHand
							{
								OFFSET 3.483560 -0.000000 -0.000000
								CHANNELS 3 Zrotation Yrotation Xrotation
								JOINT LeftFingerBase
								{
									OFFSET 0.000000 0.000000 0.000000
									CHANNELS 3 Zrotation Yrotation Xrotation
									JOINT LeftHandIndex1
									{
										OFFSET 0.715260 -0.000000 -0.000000
										CHANNELS 3 Zrotation Yrotation Xrotation
										End Site
										{
											OFFSET 0.000000 0.000000 0.000000
										}
									}
								}
								JOINT LThumb
								{
									OFFSET 0.000000 0.000000 0.000000
									CHANNELS 3 Zrotation Yrotation Xrotation
									End Site
									{
										OFFSET 0.000000 0.000000 0.000000
									}
								}
							}
						}
					}
				}
				JOINT RightShoulder
				{
					OFFSET 0.000000 0.000000 0.000000
					CHANNELS 3 Zrotation Yrotation Xrotation
					JOINT RightArm
					{
						OFFSET -3.136600 1.374050 -0.404650
						CHANNELS 3 Zrotation Yrotation Xrotation
						JOINT RightForeArm
						{
							OFFSET -5.241900 -0.000000 -0.000000
							CHANNELS 3 Zrotation Yrotation Xrotation
							JOINT RightHand
							{
								OFFSET -3.444170 -0.000000 -0.000000
								CHANNELS 3 Zrotation Yrotation Xrotation
								JOINT RightFingerBase
								{
									OFFSET 0.000000 0.000000 0.000000
									CHANNELS 3 Zrotation Yrotation Xrotation
									JOINT RightHandIndex1
									{
										OFFSET -0.622530 -0.000000 -0.000000
										CHANNELS 3 Zrotation Yrotation Xrotation
										End Site
										{
											OFFSET 0.000000 0.000000 0.000000
										}
									}
								}
								JOINT RThumb
								{
									OFFSET 0.000000 0.000000 0.000000
									CHANNELS 3 Zrotation Yrotation Xrotation
									End Site
									{
										OFFSET 0.000000 0.000000 0.000000
									}
								}
							}
						}
					}
				}
			}
		}
	}
}
MOTION
Frames: 5
Frame Time: 0.008333
4.486053 16.971421 4.772305 6.094296 32.405702 12.573351 -11.555932 5.969298 -1.139868 -4.828288 23.473992 -4.672592 -1.004310 2.144069 33.017915 0.946349 1.633546 18.410706 0.256400 0.000000 -79.426500 8.153240 -0.814695 4.968106 17.033256 3.352183 -22.315931 2.281578 3.122260 -4.491050 -3.370461 -16.670229 -10.849026 178.679200 0.000001 -4.842500 2.363438 -6.354013 -6.048072 0.548605 -6.702797 -3.560878 -4.960954 -6.800460 2.051085 8.686897 -19.000872 -9.143577 -3.389227 -0.246941 -0.309304 0.000000 0.000000 0.000000 0.793769 3.762950 0.123957 -52.529465 -11.663678 -3.951817 -1.231392 -70.112673 -0.038857 7.541804 -1.257416 -0.105248 -0.112467 0.347499 -0.000000 0.000000 0.000000 0.000000 0.000000 0.000000 0.000000 16.143089 -18.732746 0.368982 56.107847 -4.212698 -14.745724 2.934749 38.225802 0.005576 -1.641741 2.938366 -0.046220 0.132016 -0.082143 -0.000000 0.000000 0.000000 0.000000 0.000000 0.000000 0.000000 
4.554120 16.975582 4.897334 5.571050 31.676187 12.201147 -11.702156 5.893252 -1.149913 -4.101037 23.581099 -5.603680 -0.858799 2.241579 35.234813 1.034484 1.255365 19.718817 0.054900 0.000000 -76.499300 8.022057 -0.918279 4.960345 17.720621 3.379000 -21.461722 2.454177 3.156581 -4.895654 -3.297186 -15.818100 -10.081500 178.691800 -0.000000 -5.857000 2.702462 -6.245085 -6.066019 0.604754 -6.626631 -3.577275 -4.993614 -6.723693 2.020970 8.715742 -18.824390 -9.099902 -3.417246 -0.249880 -0.298342 0.000000 0.000000 0.000000 0.634807 3.834328 0.123373 -53.490578 -11.219999 -3.668555 -1.279821 -69.562035 -0.036772 7.342020 -1.209090 -0.098671 -0.110799 0.339210 -0.000000 0.000000 0.000000 0.000000 0.000000 0.000000 0.000000 16.224891 -18.491315 0.357770 56.187388 -3.540738 -14.483330 2.922313 38.371176 0.005422 -1.633899 2.907510 -0.045516 0.130952 -0.083796 -0.000000 0.000000 0.000000 0.000000 0.000000 0.000000 0.000000 
4.618300 16.978513 5.018755 5.067823 30.924283 11.845753 -11.825093 5.794686 -1.174651 -3.436528 23.633787 -6.555625 -0.726268 2.336454 37.449709 1.132337 1.205379 20.709990 -0.015800 -0.000000 -72.825801 7.898396 -1.004597 4.939831 18.383898 3.371110 -20.508367 2.623577 3.211594 -5.449227 -3.258049 -14.928298 -9.365562 178.784800 0.000000 -7.212700 3.014257 -6.134351 -6.040235 0.650760 -6.545405 -3.585382 -5.037225 -6.641275 1.983999 8.770280 -18.602790 -9.057381 -3.447880 -0.252907 -0.288171 0.000000 0.000000 0.000000 0.512531 3.902333 0.129105 -54.451204 -10.759236 -3.457025 -1.327627 -68.943104 -0.035018 7.193459 -1.174929 -0.094000 -0.109496 0.330959 -0.000000 0.000000 0.000000 0.000000 0.000000 0.000000 0.000000 16.336421 -18.204752 0.350654 56.322162 -2.824394 -14.207096 2.907814 38.493504 0.005258 -1.643905 2.889504 -0.045513 0.129742 -0.085601 -0.000000 0.000000 0.000000 0.000000 0.000000 0.000000 0.000000 
4.678214 16.980473 5.136643 4.601068 30.154987 11.512167 -11.920158 5.677372 -1.214168 -2.851846 23.626426 -7.510004 -0.604886 2.431320 39.624402 1.238103 1.561606 21.345619 0.096000 -0.000000 -68.650500 7.789096 -1.071830 4.904819 18.999617 3.335714 -19.479856 2.779878 3.279063 -6.096064 -3.240810 -14.050524 -8.727922 178.931200 0.000000 -8.806300 3.281678 -6.025725 -5.969327 0.683506 -6.461246 -3.584308 -5.091233 -6.555375 1.941620 8.852938 -18.347534 -9.017508 -3.481025 -0.255991 -0.279173 0.000000 0.000000 0.000000 0.426941 3.961537 0.140631 -55.401225 -10.274795 -3.319889 -1.373698 -68.265528 -0.033598 7.101841 -1.159468 -0.091338 -0.108539 0.322714 -0.000000 0.000000 0.000000 0.000000 0.000000 0.000000 0.000000 16.483051 -17.887363 0.346961 56.508848 -2.046855 -13.899718 2.891830 38.577372 0.005100 -1.679088 2.893447 -0.046410 0.128455 -0.087560 -0.000000 0.000000 0.000000 0.000000 0.000000 0.000000 0.000000 
4.733822 16.981796 5.251125 4.170192 29.366798 11.191026 -11.984389 5.546540 -1.263451 -2.347042 23.557126 -8.449116 -0.492535 2.526781 41.719967 1.352565 2.361982 21.619332 0.415300 0.000000 -64.358000 7.682067 -1.129922 4.835544 19.586771 3.325316 -18.775754 2.916281 3.261841 -5.952099 -3.159650 -13.206159 -8.644266 179.103600 -0.000000 -10.522100 3.500668 -5.919338 -5.848833 0.702884 -6.373685 -3.574091 -5.156321 -6.465739 1.891559 8.962936 -18.045442 -8.975443 -3.517995 -0.259283 -0.270078 0.000000 0.000000 0.000000 0.375947 4.014014 0.159931 -56.334975 -9.769020 -3.253127 -1.418223 -67.528254 -0.032480 7.069256 -1.167045 -0.090882 -0.107938 0.314434 -0.000000 0.000000 0.000000 0.000000 0.000000 0.000000 0.000000 16.667511 -17.525251 0.345238 56.745701 -1.231083 -13.565914 2.873601 38.630887 0.004954 -1.734635 2.923841 -0.048406 0.127005 -0.089669 -0.000000 0.000000 0.000000 0.000000 0.000000 0.000000 0.000000 
